PathFileType	4	(X/Y/Z)	 Jog05.trc
DataRate	CameraRate	NumFrames	NumMarkers	Units	OrigDataRate	OrigDataStartFrame	OrigNumFrames
250	250	6	35	m	250	82	651
Frame#	Time	RASI			LASI			RAIC			LAIC			RTH2			RTB3			RMT1			RMT5			LTH1			LTH2			LTH3			LCAL			LMT1			LMT5			CLAV			STRN			RACR			LACR			RTH1			RTH3			LTB1			LTB2			C7			LPSI			T10			RPSI			LTB3			RTB1			RCAL			RTB2			C_30			RHJC			LHJC			MTOR			MPEL			
		X1	Y1	Z1	X2	Y2	Z2	X3	Y3	Z3	X4	Y4	Z4	X5	Y5	Z5	X6	Y6	Z6	X7	Y7	Z7	X8	Y8	Z8	X9	Y9	Z9	X10	Y10	Z10	X11	Y11	Z11	X12	Y12	Z12	X13	Y13	Z13	X14	Y14	Z14	X15	Y15	Z15	X16	Y16	Z16	X17	Y17	Z17	X18	Y18	Z18	X19	Y19	Z19	X20	Y20	Z20	X21	Y21	Z21	X22	Y22	Z22	X23	Y23	Z23	X24	Y24	Z24	X25	Y25	Z25	X26	Y26	Z26	X27	Y27	Z27	X28	Y28	Z28	X29	Y29	Z29	X30	Y30	Z30	X31	Y31	Z31	X32	Y32	Z32	X33	Y33	Z33	X34	Y34	Z34	X35	Y35	Z35	

82	0.328	-3.044591	0.953609	0.488961	-3.053549	0.944794	0.258001	-3.10509	1.057544	0.531641	-3.088955	1.050583	0.232245	-3.00207	0.807342	0.554281	-3.028446	0.356036	0.455058	-3.066623	0.151937	0.451056	-3.089551	0.155143	0.542754	-3.137169	0.828423	0.209588	-3.125925	0.7314929999999999	0.244808	-3.206726	0.664952	0.233777	-3.636624	0.184877	0.359828	-3.477362	0.043826	0.395861	-3.491773	0.048422	0.306102	-3.002955	1.422517	0.388554	-2.972444	1.203221	0.40352	-3.10464	1.476719	0.539263	-3.000479	1.461807	0.210979	-3.097877	0.844749	0.5677	-2.987943	0.707057	0.555324	-3.347017	0.37777	0.357129	-3.383174	0.313724	0.308603	-3.112973	1.504892	0.357543	-3.214492	1.044407	0.355783	-3.193496	1.22354	0.354375	-3.214691	1.038849	0.428251	-3.438163	0.275331	0.364433	-2.927499	0.448151	0.452248	-3.243418	0.269626	0.439784	-2.970001	0.399679	0.5060519999999999	-2.864471	0.572101	0.408341	-3.133233485853714	0.9090863943299844	0.4620297059267784	-3.139711204006172	0.9027120824842689	0.2950176737218502	-3.05526175	1.46648375	0.37408475	-3.13183075	0.99541475	0.382749	
83	0.332	-3.027808	0.957741	0.489148	-3.035899	0.947283	0.258868	-3.083063	1.061775	0.53386	-3.069839	1.053662	0.232772	-2.984649	0.811266	0.554081	-3.002504	0.352902	0.453798	-3.031421	0.146915	0.449947	-3.054782	0.149338	0.541435	-3.121481	0.830971	0.209345	-3.112248	0.73375	0.244179	-3.194556	0.668837	0.232797	-3.626909	0.194385	0.35781	-3.475004	0.045779	0.395103	-3.48894	0.049821	0.305155	-2.987532	1.426469	0.389901	-2.955549	1.208125	0.405492	-3.090264	1.480063	0.538891	-2.983516	1.466063	0.21281	-3.08028	0.848831	0.567949	-2.970659	0.710839	0.555018	-3.338725	0.382929	0.354749	-3.374553	0.319896	0.305314	-3.097425	1.50771	0.357787	-3.196501	1.048144	0.355231	-3.176389	1.226227	0.353036	-3.196981	1.04287	0.427707	-3.429943	0.280345	0.362495	-2.905706	0.44908	0.451002	-3.213562	0.256475	0.438546	-2.945723	0.39889	0.5057469999999999	-2.847885	0.575956	0.407506	-3.116338003184363	0.913480566708549	0.4623039563914085	-3.122190197749312	0.9059163285723187	0.2957431648432063	-3.03968425	1.47007625	0.37484725	-3.11429725	0.9990095	0.3827385	
84	0.336	-3.011023	0.96175	0.489128	-3.018099	0.949433	0.259623	-3.066276	1.066205	0.533643	-3.050218	1.056612	0.233141	-2.967268	0.814917	0.553801	-2.976378	0.349036	0.452573	-2.996115	0.142323	0.448701	-3.018728	0.143678	0.5396919999999999	-3.105681	0.83328	0.208971	-3.098812	0.735703	0.243856	-3.181959	0.6725449999999999	0.231996	-3.616981	0.204242	0.355497	-3.472462	0.048339	0.394311	-3.485698	0.051451	0.304111	-2.972193	1.430162	0.391042	-2.93867	1.212724	0.407268	-3.075594	1.483199	0.538737	-2.966658	1.470123	0.214617	-3.062527	0.852781	0.568061	-2.953501	0.714376	0.554668	-3.330074	0.388088	0.35265	-3.367795	0.325789	0.303651	-3.081744	1.510306	0.358108	-3.178479	1.051708	0.354609	-3.159384	1.2288	0.351725	-3.179302	1.046812	0.427101	-3.420316	0.285154	0.359541	-2.883916	0.449731	0.449854	-3.183288	0.243508	0.437502	-2.921741	0.397573	0.504041	-2.831691	0.579305	0.406328	-3.099446152569401	0.9177766567093412	0.462362828914013	-3.104565593793067	0.9088653851502829	0.2963174137023824	-3.02404725	1.4734475	0.375626	-3.09672575	1.00242575	0.38261525	
85	0.34	-2.994267	0.965535	0.489253	-3.000285	0.951499	0.260248	-3.049443	1.070473	0.533359	-3.030889	1.059436	0.233756	-2.949943	0.818296	0.5535099999999999	-2.950798	0.345339	0.451383	-2.960778	0.13828	0.44744	-2.983572	0.138577	0.538386	-3.090093	0.8356130000000001	0.208661	-3.085044	0.7378	0.243483	-3.169343	0.676145	0.231234	-3.606581	0.214118	0.353002	-3.46936	0.051468	0.393238	-3.482008	0.053371	0.303095	-2.956655	1.433657	0.39222	-2.922014	1.217113	0.409105	-3.061143	1.486127	0.538571	-2.949832	1.474048	0.216476	-3.044926	0.85663	0.568346	-2.936579	0.717696	0.554204	-3.320742	0.393077	0.350457	-3.359841	0.33221	0.301161	-3.066137	1.512721	0.35836	-3.160378	1.055153	0.354018	-3.142281	1.231201	0.350485	-3.161578	1.050578	0.426483	-3.410734	0.28998	0.356961	-2.862471	0.450321	0.448479	-3.153025	0.230899	0.436587	-2.898206	0.39639	0.503395	-2.815834	0.5823430000000001	0.405188	-3.082620627789814	0.9218097155435351	0.4624670442861437	-3.086975329464732	0.9116530866453731	0.2967561009387829	-3.00844175	1.47663825	0.37640675	-3.079127	1.00569125	0.3825005	
86	0.344	-2.977502	0.96911	0.489329	-2.981463	0.953943	0.260682	-3.031965	1.074348	0.533627	-3.011692	1.062187	0.234141	-2.93279	0.821385	0.553162	-2.925271	0.342208	0.45048	-2.925278	0.134678	0.446169	-2.948943	0.134088	0.537703	-3.074416	0.837799	0.208209	-3.071331	0.739896	0.243134	-3.156655	0.679671	0.230477	-3.595871	0.224384	0.350438	-3.466015	0.055581	0.392017	-3.477989	0.055343	0.3019	-2.941225	1.436873	0.393318	-2.90536	1.221329	0.410818	-3.046286	1.488928	0.538528	-2.933103	1.47776	0.218277	-3.027257	0.860331	0.568449	-2.919946	0.720718	0.553657	-3.311372	0.39822	0.348652	-3.351272	0.337835	0.298702	-3.050448	1.515016	0.358705	-3.142295	1.05844	0.353453	-3.125205	1.233458	0.349296	-3.143917	1.054203	0.425863	-3.401511	0.295143	0.355207	-2.841033	0.450605	0.447025	-3.121782	0.218138	0.435212	-2.874909	0.39527	0.501865	-2.800054	0.584808	0.404183	-3.065659924681982	0.9255124729159756	0.4620126483040528	-3.068526517612618	0.9145360490384337	0.2965398197731424	-2.9927655	1.47964425	0.377207	-3.06129425	1.008924	0.38233175	
87	0.348	-2.960864	0.97245	0.489267	-2.964042	0.9557330000000001	0.261397	-3.015437	1.078353	0.533353	-2.991175	1.064583	0.234877	-2.915729	0.824152	0.552718	-2.89917	0.338626	0.449378	-2.889923	0.131651	0.445083	-2.912804	0.129709	0.536063	-3.058665	0.839809	0.207725	-3.057564	0.742	0.242911	-3.143908	0.683239	0.229732	-3.584666	0.2349	0.34801	-3.462525	0.060244	0.390369	-3.474312	0.057724	0.300423	-2.925727	1.440055	0.394504	-2.888835	1.225335	0.4124	-3.031395	1.491521	0.5385180000000001	-2.916394	1.481297	0.22004	-3.009652	0.863819	0.56853	-2.903501	0.723374	0.55284	-3.301401	0.403355	0.346815	-3.341901	0.343736	0.296595	-3.034828	1.517176	0.358995	-3.124221	1.061607	0.352866	-3.108217	1.23556	0.348182	-3.126313	1.05764	0.425186	-3.391737	0.300573	0.352902	-2.820101	0.450528	0.445398	-3.090082	0.205612	0.433796	-2.851538	0.394007	0.50098	-2.784442	0.586734	0.403017	-3.04895419199421	0.9292437619542924	0.4620316547501492	-3.051254726224056	0.9171424307018262	0.297077993656685	-2.977086	1.48251225	0.37801425	-3.04386	1.0118575	0.382179	
